<svg width="46" height="46" viewBox="0 0 46 46" fill="none" xmlns="http://www.w3.org/2000/svg">
<rect width="46" height="46" rx="23" fill="#E0D03B"/>
<g clip-path="url(#clip0_5157_8952)">
<path d="M31.3303 15.4286C29.7535 14.7067 28.0889 14.1946 26.3789 13.9053C26.1449 14.3236 25.9332 14.7539 25.7447 15.1946C23.9233 14.9201 22.071 14.9201 20.2496 15.1946C20.061 14.754 19.8493 14.3236 19.6154 13.9053C17.9043 14.197 16.2386 14.7104 14.6602 15.4324C11.5266 20.0686 10.6772 24.5896 11.1019 29.0464C12.937 30.4022 14.991 31.4334 17.1746 32.095C17.6663 31.4337 18.1014 30.7321 18.4752 29.9978C17.7651 29.7326 17.0798 29.4054 16.4271 29.0199C16.5988 28.8954 16.7669 28.767 16.9292 28.6424C18.8284 29.5356 20.9013 29.9986 23 29.9986C25.0987 29.9986 27.1716 29.5356 29.0708 28.6424C29.235 28.7764 29.403 28.9048 29.5729 29.0199C28.9189 29.406 28.2323 29.7338 27.521 29.9997C27.8944 30.7337 28.3295 31.4346 28.8216 32.095C31.0071 31.436 33.0626 30.4054 34.898 29.0483C35.3964 23.8798 34.0467 19.4003 31.3303 15.4286ZM19.0132 26.3055C17.8296 26.3055 16.8518 25.2314 16.8518 23.91C16.8518 22.5886 17.7956 21.5051 19.0094 21.5051C20.2232 21.5051 21.1935 22.5886 21.1727 23.91C21.1519 25.2314 20.2194 26.3055 19.0132 26.3055ZM26.9868 26.3055C25.8013 26.3055 24.8273 25.2314 24.8273 23.91C24.8273 22.5886 25.7711 21.5051 26.9868 21.5051C28.2024 21.5051 29.1652 22.5886 29.1444 23.91C29.1236 25.2314 28.193 26.3055 26.9868 26.3055Z" fill="black"/>
</g>
<defs>
<clipPath id="clip0_5157_8952">
<rect width="24" height="18.1897" fill="white" transform="translate(11 13.9053)"/>
</clipPath>
</defs>
</svg>
