<svg width="46" height="46" viewBox="0 0 46 46" fill="none" xmlns="http://www.w3.org/2000/svg">
<rect width="46" height="46" rx="23" fill="#E0D03B"/>
<path fill-rule="evenodd" clip-rule="evenodd" d="M23.0304 11.333C16.6032 11.333 11.394 16.5422 11.394 22.9693C11.394 28.1097 14.7272 32.4718 19.3519 34.0118C19.934 34.1168 20.144 33.7587 20.144 33.4507C20.144 33.1742 20.1347 32.4415 20.1312 31.472C16.8937 32.1743 16.21 29.911 16.21 29.911C15.6827 28.567 14.9185 28.2088 14.9185 28.2088C13.8627 27.4867 14.999 27.503 14.999 27.503C16.168 27.5847 16.7805 28.7023 16.7805 28.7023C17.8189 30.4803 19.5059 29.967 20.1662 29.6695C20.2724 28.917 20.5757 28.4037 20.907 28.1132C18.324 27.8203 15.608 26.8217 15.608 22.3615C15.608 21.0933 16.0619 20.0527 16.8027 19.2407C16.6849 18.9455 16.2824 17.7613 16.9182 16.1607C16.9182 16.1607 17.8947 15.8468 20.1172 17.3518C21.0482 17.094 22.041 16.9645 23.0292 16.9598C24.0197 16.9645 25.0137 17.094 25.9412 17.3518C28.1649 15.8457 29.1402 16.1607 29.1402 16.1607C29.776 17.7613 29.377 18.9455 29.2557 19.2407C30.0024 20.0527 30.4504 21.0922 30.4504 22.3615C30.4504 26.8333 27.732 27.8157 25.1397 28.1038C25.5539 28.4632 25.9272 29.1725 25.9272 30.2575C25.9272 31.8138 25.9132 33.0692 25.9132 33.4507C25.9132 33.7622 26.1209 34.1238 26.7147 34.0095C31.337 32.4672 34.6667 28.1085 34.6667 22.9693C34.6667 16.5422 29.4575 11.333 23.0304 11.333Z" fill="#040404"/>
</svg>
