<svg width="25" height="24" viewBox="0 0 25 24" fill="none" xmlns="http://www.w3.org/2000/svg">
<path d="M18.8333 11V8.11111C18.8333 7.28599 18.6225 6.49467 18.2475 5.91122C17.8724 5.32778 17.3637 5 16.8333 5C16.3028 5 15.7941 5.32778 15.419 5.91122C15.044 6.49467 14.8333 7.28599 14.8333 8.11111V9.28889" stroke="currentColor" stroke-width="2" stroke-linecap="round" stroke-linejoin="round"/>
<path d="M14.8333 9V6C14.8333 5.20435 14.6225 4.44129 14.2475 3.87868C13.8724 3.31607 13.3637 3 12.8333 3C12.3028 3 11.7941 3.31607 11.419 3.87868C11.044 4.44129 10.8333 5.20435 10.8333 6V9" stroke="currentColor" stroke-width="2" stroke-linecap="round" stroke-linejoin="round"/>
<path d="M10.8333 9.72857V8.57143C10.8333 7.88944 10.6225 7.23539 10.2475 6.75315C9.87239 6.27092 9.36368 6 8.83325 6C8.30282 6 7.79411 6.27092 7.41904 6.75315C7.04397 7.23539 6.83325 7.88944 6.83325 8.57143V14" stroke="currentColor" stroke-width="2" stroke-linecap="round" stroke-linejoin="round"/>
<path d="M6.83325 14C6.83325 13.4696 6.62254 12.9609 6.24747 12.5858C5.87239 12.2107 5.36368 12 4.83325 12C4.30282 12 3.79411 12.2107 3.41904 12.5858C3.04397 12.9609 2.83325 13.4696 2.83325 14" stroke="currentColor" stroke-width="2" stroke-linecap="round" stroke-linejoin="round"/>
<path d="M18.8333 11C18.8333 10.4696 19.044 9.96086 19.419 9.58579C19.7941 9.21071 20.3028 9 20.8333 9C21.3637 9 21.8724 9.21071 22.2475 9.58579C22.6225 9.96086 22.8333 10.4696 22.8333 11V14C22.8333 16.1217 21.9904 18.1566 20.4901 19.6569C18.9898 21.1571 16.955 22 14.8333 22H10.8333C8.71152 22 6.67669 21.1571 5.1764 19.6569C3.67611 18.1566 2.83325 16.1217 2.83325 14C2.83325 13.4696 3.04397 12.9609 3.41904 12.5858C3.79411 12.2107 4.30282 12 4.83325 12C5.36368 12 5.87239 12.2107 6.24747 12.5858C6.62254 12.9609 6.83325 13.4696 6.83325 14" stroke="currentColor" stroke-width="2" stroke-linecap="round" stroke-linejoin="round"/>
</svg>
