<svg width="24" height="24" viewBox="0 0 24 24" fill="none" xmlns="http://www.w3.org/2000/svg">
<path d="M3 3V8H8" stroke="currentColor" stroke-width="2" stroke-linecap="round" stroke-linejoin="round"/>
<path d="M3.05 12.9996C3.27151 15.0054 4.1607 16.8786 5.57478 18.3183C6.98886 19.758 8.84577 20.6807 10.8473 20.9382C12.8488 21.1956 14.8788 20.773 16.6112 19.7381C18.3436 18.7031 19.678 17.116 20.3999 15.2316C21.1219 13.3471 21.1896 11.2747 20.5921 9.34717C19.9947 7.41963 18.7668 5.74881 17.1056 4.60304C15.4444 3.45728 13.4463 2.90305 11.4322 3.02938C9.41817 3.1557 7.50501 3.95525 6 5.29961L3 7.99961" stroke="currentColor" stroke-width="2" stroke-linecap="round" stroke-linejoin="round"/>
<path d="M12 7V12L16 14" stroke="currentColor" stroke-width="2" stroke-linecap="round" stroke-linejoin="round"/>
</svg>
