<svg width="46" height="46" viewBox="0 0 46 46" fill="none" xmlns="http://www.w3.org/2000/svg">
<rect width="46" height="46" rx="23" fill="#E0D03B"/>
<path d="M16.897 15.0488C21.2584 15.0488 24.7937 18.6088 24.7937 23C24.7937 27.3912 21.2581 30.9509 16.897 30.9509C12.5359 30.9509 9 27.3912 9 23C9 18.6088 12.5356 15.0488 16.897 15.0488ZM29.5079 15.5146C31.6886 15.5146 33.4564 18.8656 33.4564 23H33.4566C33.4566 27.1333 31.6888 30.4854 29.5081 30.4854C27.3275 30.4854 25.5597 27.1333 25.5597 23C25.5597 18.8667 27.3272 15.5146 29.5079 15.5146ZM35.6113 16.2943C36.3781 16.2943 37 19.2965 37 23C37 26.7025 36.3784 29.7057 35.6113 29.7057C34.8443 29.7057 34.2229 26.7033 34.2229 23C34.2229 19.2967 34.8445 16.2943 35.6113 16.2943Z" fill="black"/>
</svg>
