<svg width="46" height="46" viewBox="0 0 46 46" fill="none" xmlns="http://www.w3.org/2000/svg">
<rect width="46" height="46" rx="23" fill="#E0D03B"/>
<path d="M32.3478 14.8807V12.2082C32.1595 12.2082 31.9155 12.208 31.3822 12.208L14.4849 12.2082C13.9516 12.2082 13.716 12.2082 13.5193 12.2082V14.8807C13.6455 14.8807 13.9516 14.881 14.4849 14.881L31.3822 14.8807C31.9155 14.8807 32.206 14.8807 32.3478 14.8807Z" stroke="black" stroke-width="0.58" stroke-linecap="round" stroke-linejoin="round"/>
<path d="M32.3478 19.7047V17.0322H14.4848C13.9515 17.0322 13.6811 17.0322 13.5192 17.0322V19.7047C13.6735 19.7047 13.9515 19.7047 14.4848 19.7047H32.3478Z" stroke="black" stroke-width="0.58" stroke-linecap="round" stroke-linejoin="round"/>
<path d="M32.4825 33.7912V22.0183C32.4825 21.9231 31.9153 21.9555 31.382 21.9555H14.4846C13.9514 21.9555 13.519 21.9231 13.519 22.0183V33.6196C13.6832 33.5249 22.4683 28.8293 22.951 28.6042C23.2518 28.7775 30.9112 32.885 32.483 33.7908L32.4825 33.7912Z" stroke="black" stroke-width="0.58" stroke-linecap="round" stroke-linejoin="round"/>
</svg>
