<svg width="24" height="24" viewBox="0 0 24 24" fill="none" xmlns="http://www.w3.org/2000/svg">
<path d="M9.73887 21.6293C9.26833 21.8395 8.71508 21.6577 8.46097 21.2093L7.39802 19.3338C7.26022 19.0907 7.02696 18.9163 6.75477 18.853L4.75655 18.3878C4.27067 18.2747 3.94248 17.8207 3.98734 17.3239L4.19 15.0795C4.21386 14.8152 4.13168 14.5522 3.96155 14.3485L2.53542 12.641C2.22542 12.2699 2.22542 11.7301 2.53542 11.359L3.96155 9.65147C4.13168 9.44778 4.21386 9.18482 4.19 8.9205L3.98734 6.67612C3.94248 6.17927 4.27067 5.72535 4.75655 5.61223L6.75477 5.14704C7.02696 5.08367 7.26022 4.90929 7.39802 4.66616L8.46097 2.79067C8.71508 2.34231 9.26833 2.1605 9.73887 2.37073L11.5921 3.1987C11.8517 3.31468 12.1483 3.31468 12.4079 3.1987L14.2611 2.37073C14.7317 2.1605 15.2849 2.34231 15.539 2.79067L16.602 4.66616C16.7398 4.90929 16.973 5.08367 17.2452 5.14704L19.2435 5.61223C19.7293 5.72535 20.0575 6.17927 20.0127 6.67612L19.81 8.9205C19.7861 9.18482 19.8683 9.44778 20.0384 9.65147L21.4646 11.359C21.7746 11.7301 21.7746 12.2699 21.4646 12.641L20.0384 14.3485C19.8683 14.5522 19.7861 14.8152 19.81 15.0795L20.0127 17.3239C20.0575 17.8207 19.7293 18.2747 19.2435 18.3878L17.2452 18.853C16.973 18.9163 16.7398 19.0907 16.602 19.3338L15.539 21.2093C15.2849 21.6577 14.7317 21.8395 14.2611 21.6293L12.4079 20.8013C12.1483 20.6853 11.8517 20.6853 11.5921 20.8013L9.73887 21.6293Z" fill="currentColor"/>
<path d="M16 9L10.5 14.5L8 12" stroke="#040404" stroke-width="1.33333" stroke-linecap="round" stroke-linejoin="round"/>
</svg>
